<!--?xml version="1.0" encoding="utf-8"?-->
<!-- Generator: Adobe Illustrator 18.0.0, SVG Export Plug-In . SVG Version: 6.00 Build 0)  -->

<svg version="1.1" id="_x32_" xmlns="http://www.w3.org/2000/svg" xmlns:xlink="http://www.w3.org/1999/xlink" x="0px" y="0px" viewBox="0 0 512 512" style="width: 64px; height: 64px; opacity: 1;" xml:space="preserve">
<style type="text/css">
	.st0{fill:#4B4B4B;}
</style>
<g>
	<path class="st0" d="M427.258,244.249c0.203-2.604,0.338-5.228,0.338-7.885c0-55.233-44.775-100.008-100.008-100.008
		c-17.021,0-33.042,4.264-47.072,11.764c-15.136-42.633-55.809-73.172-103.633-73.172c-60.729,0-109.96,49.231-109.96,109.96
		c0,11.416,1.741,22.425,4.97,32.778C29.804,234.254,0,275.238,0,323.21c0,62.627,50.769,113.396,113.396,113.396h292.642
		c3.021,0.284,6.079,0.445,9.175,0.445c53.454,0,96.788-43.333,96.788-96.788C512,290.891,475.024,250.183,427.258,244.249z
		 M313.256,302.265l-53.414,70.404c-3.653,4.816-9.632,4.816-13.284,0l-53.414-70.404c-3.653-4.816-1.697-8.756,4.347-8.756h20.451
		c6.044,0,10.99-4.945,10.99-10.989v-58.074c0-6.044,4.944-10.99,10.989-10.99h26.558c6.044,0,10.989,4.946,10.989,10.99v58.074
		c0,6.044,4.945,10.989,10.989,10.989h20.451C314.953,293.509,316.909,297.449,313.256,302.265z" style="fill: rgb(227, 227, 227);"></path>
</g>
</svg>
