<!--?xml version="1.0" encoding="utf-8"?-->
<!-- Generator: Adobe Illustrator 18.1.1, SVG Export Plug-In . SVG Version: 6.00 Build 0)  -->

<svg version="1.1" id="_x32_" xmlns="http://www.w3.org/2000/svg" xmlns:xlink="http://www.w3.org/1999/xlink" x="0px" y="0px" viewBox="0 0 512 512" style="width: 64px; height: 64px; opacity: 1;" xml:space="preserve">
<style type="text/css">
	.st0{fill:#4B4B4B;}
</style>
<g>
	<path class="st0" d="M443.256,163.486c29.893,0,54.128-24.235,54.128-54.136c0-29.893-24.235-54.128-54.128-54.128
		c-29.894,0-54.145,24.235-54.145,54.128c0,6.722,1.295,13.14,3.534,19.079l-65.922,49.252
		c-14.179-12.956-32.995-20.925-53.712-20.925c-6.586,0-12.948,0.888-19.071,2.398L217.412,78.41
		c8.856-8.272,14.435-20.022,14.435-33.098C231.847,20.286,211.562,0,186.528,0c-25.018,0-45.304,20.286-45.304,45.312
		s20.286,45.311,45.304,45.311c2.206,0,4.364-0.215,6.49-0.52l36.112,79.849c-16.034,10.59-27.96,26.832-33.059,45.88l-62.457-5.292
		c-4.796-28.319-29.366-49.9-59.051-49.9c-33.106,0-59.946,26.84-59.946,59.946s26.84,59.946,59.946,59.946
		c26.153,0,48.325-16.76,56.525-40.108l62.745,5.315c2.813,24.346,16.576,45.303,36.255,57.908l-12.292,30.82l-11.43,28.687
		c-4.029-0.672-8.153-1.103-12.373-1.103c-41.42,0-74.974,33.562-74.974,74.965c0,41.419,33.554,74.981,74.974,74.981
		c41.403,0,74.973-33.562,74.973-74.981c0-25.905-13.156-48.741-33.138-62.217l11.558-29.022l12.245-30.725
		c4.364,0.743,8.808,1.207,13.38,1.207c27.543,0,51.842-13.964,66.165-35.201l55.162,26.784c-0.463,2.51-0.751,5.084-0.751,7.721
		c0,23.299,18.895,42.178,42.186,42.178s42.171-18.879,42.171-42.178c0-23.3-18.88-42.178-42.171-42.178
		c-12.644,0-23.947,5.587-31.667,14.387l-55.2-26.808c2.478-7.705,3.852-15.922,3.852-24.458c0-12.5-2.957-24.282-8.068-34.809
		l65.922-49.244C419.692,159.346,430.978,163.486,443.256,163.486z" style="fill: rgb(227, 227, 227);"></path>
</g>
</svg>
