<!--?xml version="1.0" encoding="utf-8"?-->
<!-- Generator: Adobe Illustrator 18.1.1, SVG Export Plug-In . SVG Version: 6.00 Build 0)  -->

<svg version="1.1" id="_x32_" xmlns="http://www.w3.org/2000/svg" xmlns:xlink="http://www.w3.org/1999/xlink" x="0px" y="0px" viewBox="0 0 512 512" style="width: 256px; height: 256px; opacity: 1;" xml:space="preserve">
<style type="text/css">
	.st0{fill:#4B4B4B;}
</style>
<g>
	<path class="st0" d="M437.011,74.985C390.75,28.69,326.637-0.008,255.996,0C185.363-0.008,121.25,28.69,74.988,74.985
		C28.677,121.263-0.004,185.359,0.004,256c-0.008,70.633,28.673,134.746,74.984,181.024C121.25,483.319,185.363,512.008,255.996,512
		c70.641,0.008,134.754-28.681,181.016-74.976c46.311-46.278,74.993-110.391,74.984-181.024
		C512.004,185.359,483.322,121.263,437.011,74.985z M412.211,412.216c-40.03,40.006-95.144,64.715-156.216,64.715
		c-61.056,0-116.177-24.71-156.216-64.715C59.774,372.185,35.081,317.073,35.073,256c0.009-61.064,24.701-116.185,64.707-156.216
		c40.039-40.015,95.16-64.699,156.216-64.715c61.072,0.016,116.186,24.7,156.216,64.715c40.015,40.03,64.707,95.152,64.715,156.216
		C476.918,317.073,452.226,372.185,412.211,412.216z" style="fill: rgb(227, 227, 227);"></path>
	<path class="st0" d="M231.08,327.259c15.66,14.44,40.064,13.45,54.504-2.201c14.456-15.676,13.459-40.072-2.2-54.503
		c-8.934-8.258-20.736-11.448-31.896-9.782l-71.078-70.839c-0.898-0.906-2.299-1.005-3.329-0.272
		c-1.005,0.75-1.344,2.126-0.766,3.255l46.014,89.573C215.339,297.309,218.396,315.564,231.08,327.259z" style="fill: rgb(227, 227, 227);"></path>
	<path class="st0" d="M148.036,169.7l2.184,2.588l3.058,3.642l4.318,5.143l10.74-9.017l-5.555-6.626
		c9.454-9.734,20.399-17.959,32.481-24.371l2.357,6.47l13.178-4.797l-2.761-7.574c12.783-5.093,26.547-8.225,40.954-9v7.467h14.019
		v-7.467c14.415,0.775,28.17,3.907,40.954,9l-2.753,7.574l13.171,4.797l2.356-6.47c12.083,6.412,23.036,14.638,32.49,24.371
		l-5.563,6.626l10.747,9.017l4.319-5.143l2.696-3.231l2.538-3l30.66-36.561l-4.302-4.541c-17.028-17.926-37.583-32.472-60.594-42.47
		c-22.59-9.816-47.531-15.297-73.732-15.297c-26.192,0-51.132,5.48-73.724,15.305c-23.011,9.989-43.566,24.536-60.586,42.462
		l-4.31,4.541l30.668,36.561H148.036z M136.274,133.839c14.844-14.546,32.276-26.456,51.594-34.846
		c20.893-9.066,43.896-14.135,68.127-14.135c24.24,0,47.25,5.069,68.135,14.135c19.328,8.391,36.75,20.3,51.594,34.846
		l-17.431,20.786c-10.368-10.451-22.311-19.311-35.448-26.21l4.022-11.06l-13.178-4.805l-3.618,9.964
		c-14.646-5.951-30.478-9.585-47.061-10.384v-11.144H248.99v11.144c-16.582,0.799-32.424,4.434-47.053,10.384l-3.626-9.964
		l-13.179,4.805l4.03,11.06c-13.154,6.899-25.096,15.758-35.448,26.21L136.274,133.839z" style="fill: rgb(227, 227, 227);"></path>
	<path class="st0" d="M308.538,299.253c-0.627,28.459-23.918,51.438-52.542,51.438c-28.608,0-51.916-22.979-52.533-51.438H59.65
		c19.797,90.249,100.164,157.815,196.346,157.815c96.199,0,176.557-67.566,196.345-157.815H308.538z M212.042,375.829
		c0,0.387-0.247,0.634-0.635,0.634h-17.168l-0.387,0.371v7.054l0.387,0.372h14.094c0.379,0,0.618,0.247,0.618,0.626v7.929
		c0,0.379-0.24,0.635-0.618,0.635h-14.094l-0.387,0.37v15.428c0,0.372-0.247,0.626-0.618,0.626h-9.816
		c-0.387,0-0.635-0.255-0.635-0.626v-41.53c0-0.379,0.248-0.635,0.635-0.635h27.989c0.388,0,0.635,0.256,0.635,0.635V375.829z
		 M256.473,393.326c0,11.39-6.783,17.308-16.986,17.308c-10.392,0-17.052-5.918-17.052-17.308v-25.608
		c0-0.379,0.256-0.635,0.626-0.635h9.816c0.379,0,0.634,0.256,0.634,0.635v26.3c0,4.27,2.382,6.742,5.975,6.742
		c3.718,0,5.918-2.473,5.918-6.742v-26.3c0-0.379,0.247-0.635,0.618-0.635h9.825c0.387,0,0.626,0.256,0.626,0.635V393.326z
		 M297.568,375.829c0,0.387-0.247,0.634-0.618,0.634h-17.184l-0.372,0.371v6.487l0.372,0.37h14.102c0.371,0,0.626,0.256,0.626,0.634
		v7.929c0,0.379-0.256,0.635-0.626,0.635h-14.102l-0.372,0.37v6.866l0.372,0.379h17.184c0.371,0,0.618,0.256,0.618,0.618v8.126
		c0,0.372-0.247,0.626-0.618,0.626h-28.005c-0.38,0-0.635-0.255-0.635-0.626v-41.53c0-0.379,0.255-0.635,0.635-0.635h28.005
		c0.371,0,0.618,0.256,0.618,0.635V375.829z M338.62,409.249c0,0.372-0.256,0.626-0.635,0.626h-28.953
		c-0.38,0-0.627-0.255-0.627-0.626v-41.53c0-0.379,0.247-0.635,0.627-0.635h9.824c0.379,0,0.626,0.256,0.626,0.635v31.97
		l0.372,0.363h18.132c0.379,0,0.635,0.256,0.635,0.635V409.249z" style="fill: rgb(227, 227, 227);"></path>
	<path class="st0" d="M380.102,236.789v41.531c0,0.379,0.239,0.634,0.635,0.634h9.815c0.371,0,0.627-0.256,0.627-0.634v-15.412
		c0-0.248,0.115-0.379,0.362-0.379h14.11c0.37,0,0.618-0.247,0.618-0.627v-7.928c0-0.379-0.247-0.635-0.618-0.635h-14.11
		c-0.247,0-0.362-0.116-0.362-0.37v-7.056c0-0.247,0.115-0.379,0.362-0.379h17.185c0.379,0,0.635-0.247,0.635-0.626v-8.118
		c0-0.371-0.256-0.627-0.635-0.627h-27.989C380.341,236.162,380.102,236.418,380.102,236.789z" style="fill: rgb(227, 227, 227);"></path>
	<path class="st0" d="M128.189,278.954c0.372,0,0.619-0.256,0.619-0.634v-8.111c0-0.379-0.247-0.634-0.619-0.634h-17.184
		c-0.256,0-0.379-0.123-0.379-0.37v-6.866c0-0.256,0.123-0.37,0.379-0.37h14.094c0.379,0,0.635-0.256,0.635-0.634v-7.929
		c0-0.379-0.256-0.635-0.635-0.635h-14.094c-0.256,0-0.379-0.123-0.379-0.363v-6.494c0-0.247,0.123-0.379,0.379-0.379h17.184
		c0.372,0,0.619-0.247,0.619-0.626v-8.118c0-0.371-0.247-0.627-0.619-0.627h-28.014c-0.371,0-0.626,0.256-0.626,0.627v41.531
		c0,0.379,0.255,0.634,0.626,0.634H128.189z" style="fill: rgb(227, 227, 227);"></path>
</g>
</svg>
